<svg width="956" height="2943" viewBox="0 0 956 2943" fill="none" xmlns="http://www.w3.org/2000/svg">
<g clip-path="url(#clip0_125_1286)">
<rect width="955.714" height="2942.14" fill="#19191B"/>
<g filter="url(#filter0_f_125_1286)">
<rect width="397.934" height="433.293" rx="154.972" transform="matrix(-0.582493 -0.812835 -0.812835 0.582494 1194.66 2077.56)" fill="url(#paint0_linear_125_1286)" fill-opacity="0.2"/>
</g>
<g filter="url(#filter1_f_125_1286)">
<rect x="1129.3" y="106.854" width="309.943" height="928.701" rx="154.972" transform="rotate(65.7118 1129.3 106.854)" fill="url(#paint1_linear_125_1286)" fill-opacity="0.41"/>
</g>
<g filter="url(#filter2_f_125_1286)">
<rect x="1104.24" y="1167.43" width="570.775" height="1710.24" rx="154.972" transform="rotate(65.7118 1104.24 1167.43)" fill="url(#paint2_linear_125_1286)" fill-opacity="0.12"/>
</g>
<g filter="url(#filter3_f_125_1286)">
<rect x="-266.483" y="153.955" width="309.943" height="818.857" rx="154.972" transform="rotate(-54.3739 -266.483 153.955)" fill="url(#paint3_linear_125_1286)" fill-opacity="0.27"/>
</g>
<g filter="url(#filter4_f_125_1286)">
<rect x="-207.071" y="1360.3" width="309.943" height="337.483" rx="154.972" transform="rotate(-54.3739 -207.071 1360.3)" fill="url(#paint4_linear_125_1286)" fill-opacity="0.21"/>
</g>
<path d="M431.525 493.882L432.427 455.383L465.317 475.413L431.525 493.882Z" stroke="#E7E7E7" stroke-width="1.99107" stroke-linejoin="round"/>
<path d="M434.549 508.953L435.504 468.156L470.358 489.382L434.549 508.953Z" stroke="#E7E7E7" stroke-width="0.66369" stroke-linejoin="round"/>
<path d="M143.429 1344.73L144.331 1306.23L177.221 1326.26L143.429 1344.73Z" stroke="#E7E7E7" stroke-width="1.99107" stroke-linejoin="round"/>
<path d="M146.453 1359.8L147.408 1319.01L182.262 1340.23L146.453 1359.8Z" stroke="#E7E7E7" stroke-width="0.66369" stroke-linejoin="round"/>
<path d="M448.44 153.312L463.89 169.39L473.494 157.697L484.976 169.39L497.503 157.697L511.491 171.896" stroke="#E7E7E7" stroke-width="2.65476"/>
<path d="M49.113 2368.71L64.5625 2384.79L74.1662 2373.1L85.649 2384.79L98.1756 2373.1L112.164 2387.29" stroke="#E7E7E7" stroke-width="2.65476"/>
<circle cx="855.426" cy="135.393" r="12.2783" stroke="white" stroke-width="1.99107"/>
<circle cx="862.726" cy="148.667" r="12.942" stroke="white" stroke-width="0.66369"/>
<circle cx="118.801" cy="2747.01" r="12.2783" stroke="white" stroke-width="1.99107"/>
<circle cx="126.101" cy="2760.29" r="12.942" stroke="white" stroke-width="0.66369"/>
<circle cx="811.112" cy="2000.31" r="14.9265" transform="rotate(-27.3707 811.112 2000.31)" stroke="white" stroke-width="2.42052"/>
<circle r="15.7334" transform="matrix(0.88805 -0.459747 0.459746 0.888051 826.413 2010.56)" stroke="white" stroke-width="0.806839"/>
<path d="M868.036 480.733C868.8 480.733 869.419 481.352 869.419 482.116V490.412H877.715C878.478 490.412 879.097 491.031 879.097 491.795C879.097 492.558 878.478 493.177 877.715 493.177H869.419V501.473C869.419 502.237 868.8 502.856 868.036 502.856C867.272 502.856 866.653 502.237 866.653 501.473V493.177H858.357C857.593 493.177 856.974 492.558 856.974 491.795C856.974 491.031 857.593 490.412 858.357 490.412H866.653V482.116C866.653 481.352 867.272 480.733 868.036 480.733Z" fill="#E7E7E7"/>
<path d="M850.582 1379.85C851.129 1379.51 851.844 1379.69 852.179 1380.23L855.811 1386.18L861.758 1382.55C862.306 1382.21 863.021 1382.39 863.355 1382.93C863.689 1383.48 863.517 1384.2 862.969 1384.53L857.022 1388.16L860.655 1394.11C860.989 1394.66 860.816 1395.37 860.269 1395.71C859.722 1396.04 859.007 1395.87 858.672 1395.32L855.04 1389.37L849.093 1393.01C848.545 1393.34 847.83 1393.17 847.496 1392.62C847.162 1392.07 847.334 1391.36 847.882 1391.02L853.829 1387.39L850.196 1381.44C849.862 1380.9 850.035 1380.18 850.582 1379.85Z" fill="#E7E7E7"/>
<path d="M855.426 2530.65C856.067 2530.65 856.587 2531.17 856.587 2531.81V2538.78H863.556C864.197 2538.78 864.717 2539.3 864.717 2539.94C864.717 2540.58 864.197 2541.1 863.556 2541.1H856.587V2548.07C856.587 2548.71 856.067 2549.23 855.426 2549.23C854.784 2549.23 854.264 2548.71 854.264 2548.07V2541.1H847.295C846.654 2541.1 846.134 2540.58 846.134 2539.94C846.134 2539.3 846.654 2538.78 847.295 2538.78H854.264V2531.81C854.264 2531.17 854.784 2530.65 855.426 2530.65Z" fill="#E7E7E7"/>
<path d="M83.6201 1860.55C84.1998 1860.83 84.4471 1861.52 84.1726 1862.1L81.1896 1868.4L87.4877 1871.38C88.0674 1871.66 88.3147 1872.35 88.0402 1872.93C87.7656 1873.51 87.073 1873.76 86.4933 1873.48L80.1953 1870.5L77.2123 1876.8C76.9377 1877.38 76.2452 1877.62 75.6655 1877.35C75.0858 1877.07 74.8384 1876.38 75.113 1875.8L78.0959 1869.5L71.7979 1866.52C71.2182 1866.25 70.9708 1865.55 71.2454 1864.97C71.5199 1864.4 72.2125 1864.15 72.7922 1864.42L79.0903 1867.41L82.0732 1861.11C82.3478 1860.53 83.0403 1860.28 83.6201 1860.55Z" fill="#E7E7E7"/>
</g>
<defs>
<filter id="filter0_f_125_1286" x="472.818" y="1616.25" width="859.698" height="851.553" filterUnits="userSpaceOnUse" color-interpolation-filters="sRGB">
<feFlood flood-opacity="0" result="BackgroundImageFix"/>
<feBlend mode="normal" in="SourceGraphic" in2="BackgroundImageFix" result="shape"/>
<feGaussianBlur stdDeviation="99.5536" result="effect1_foregroundBlur_125_1286"/>
</filter>
<filter id="filter1_f_125_1286" x="133.685" y="-42.264" width="1272.22" height="962.746" filterUnits="userSpaceOnUse" color-interpolation-filters="sRGB">
<feFlood flood-opacity="0" result="BackgroundImageFix"/>
<feBlend mode="normal" in="SourceGraphic" in2="BackgroundImageFix" result="shape"/>
<feGaussianBlur stdDeviation="99.5536" result="effect1_foregroundBlur_125_1286"/>
</filter>
<filter id="filter2_f_125_1286" x="-603.746" y="1018.31" width="2091.88" height="1521.96" filterUnits="userSpaceOnUse" color-interpolation-filters="sRGB">
<feFlood flood-opacity="0" result="BackgroundImageFix"/>
<feBlend mode="normal" in="SourceGraphic" in2="BackgroundImageFix" result="shape"/>
<feGaussianBlur stdDeviation="99.5536" result="effect1_foregroundBlur_125_1286"/>
</filter>
<filter id="filter3_f_125_1286" x="-404.338" y="-235.832" width="1121.84" height="1004.62" filterUnits="userSpaceOnUse" color-interpolation-filters="sRGB">
<feFlood flood-opacity="0" result="BackgroundImageFix"/>
<feBlend mode="normal" in="SourceGraphic" in2="BackgroundImageFix" result="shape"/>
<feGaussianBlur stdDeviation="99.5536" result="effect1_foregroundBlur_125_1286"/>
</filter>
<filter id="filter4_f_125_1286" x="-344.925" y="970.509" width="730.567" height="724.223" filterUnits="userSpaceOnUse" color-interpolation-filters="sRGB">
<feFlood flood-opacity="0" result="BackgroundImageFix"/>
<feBlend mode="normal" in="SourceGraphic" in2="BackgroundImageFix" result="shape"/>
<feGaussianBlur stdDeviation="99.5536" result="effect1_foregroundBlur_125_1286"/>
</filter>
<linearGradient id="paint0_linear_125_1286" x1="198.967" y1="0" x2="198.967" y2="433.293" gradientUnits="userSpaceOnUse">
<stop stop-color="#5454D4"/>
<stop offset="1" stop-color="#5454D4" stop-opacity="0.42"/>
</linearGradient>
<linearGradient id="paint1_linear_125_1286" x1="1284.27" y1="106.854" x2="1284.27" y2="1035.55" gradientUnits="userSpaceOnUse">
<stop stop-color="#FBA81C" stop-opacity="0.26"/>
<stop offset="1" stop-color="#E05688" stop-opacity="0.15"/>
</linearGradient>
<linearGradient id="paint2_linear_125_1286" x1="1389.63" y1="1167.43" x2="1389.63" y2="2877.68" gradientUnits="userSpaceOnUse">
<stop stop-color="#FBA81C" stop-opacity="0.4"/>
<stop offset="1" stop-color="#E05688" stop-opacity="0.15"/>
</linearGradient>
<linearGradient id="paint3_linear_125_1286" x1="-111.512" y1="153.955" x2="-111.512" y2="972.812" gradientUnits="userSpaceOnUse">
<stop stop-color="#5454D4"/>
<stop offset="1" stop-color="#5454D4" stop-opacity="0.42"/>
</linearGradient>
<linearGradient id="paint4_linear_125_1286" x1="-52.0996" y1="1360.3" x2="-52.0996" y2="1697.78" gradientUnits="userSpaceOnUse">
<stop stop-color="#5454D4"/>
<stop offset="1" stop-color="#5454D4" stop-opacity="0.42"/>
</linearGradient>
<clipPath id="clip0_125_1286">
<rect width="955.714" height="2942.14" fill="white"/>
</clipPath>
</defs>
</svg>
