<svg width="927" height="679" viewBox="0 0 927 679" fill="none" xmlns="http://www.w3.org/2000/svg">
<rect width="927" height="679" fill="#19191B"/>
<circle cx="822.999" cy="246.204" r="14.9265" transform="rotate(-27.3707 822.999 246.204)" stroke="white" stroke-width="2.42052"/>
<circle r="15.7334" transform="matrix(0.88805 -0.459747 0.459746 0.888051 838.3 256.454)" stroke="white" stroke-width="0.806839"/>
<path d="M61 615L76.4371 630.573L86.0331 619.247L97.5066 630.573L110.023 619.247L124 633" stroke="#E7E7E7" stroke-width="2.65476"/>
<path d="M96.7111 170.757C97.1493 170.997 97.3363 171.6 97.1288 172.106L94.8737 177.596L99.6349 180.197C100.073 180.436 100.26 181.04 100.053 181.545C99.845 182.051 99.3215 182.266 98.8832 182.027L94.1221 179.426L91.867 184.917C91.6595 185.422 91.1359 185.638 90.6977 185.399C90.2594 185.159 90.0724 184.556 90.28 184.05L92.535 178.56L87.7739 175.959C87.3356 175.72 87.1486 175.116 87.3562 174.611C87.5638 174.105 88.0873 173.89 88.5256 174.129L93.2867 176.73L95.5417 171.239C95.7493 170.734 96.2728 170.518 96.7111 170.757Z" fill="#E7E7E7"/>
</svg>
