<svg width="46" height="46" viewBox="0 0 46 46" fill="none" xmlns="http://www.w3.org/2000/svg">
<path d="M27.3976 29.0348H17.8404C16.5131 29.0348 15.9821 28.4684 15.9821 27.0614V26.1411C15.9821 24.7341 16.5131 24.1677 17.8404 24.1677H27.3976C28.725 24.1677 29.2559 24.7341 29.2559 26.1411V27.0614C29.2559 28.4684 28.725 29.0348 27.3976 29.0348Z" stroke="#FEDC5A" stroke-width="1.32738" stroke-linecap="round" stroke-linejoin="round"/>
<path d="M25.6277 21.5128H19.6103C18.2829 21.5128 17.752 20.9465 17.752 19.5394V18.6191C17.752 17.2121 18.2829 16.6458 19.6103 16.6458H25.6277C26.9551 16.6458 27.4861 17.2121 27.4861 18.6191V19.5394C27.4861 20.9465 26.9551 21.5128 25.6277 21.5128Z" stroke="#FEDC5A" stroke-width="1.32738" stroke-linecap="round" stroke-linejoin="round"/>
<path d="M22.619 31.4683V29.3445" stroke="#FEDC5A" stroke-width="1.32738" stroke-linecap="round" stroke-linejoin="round"/>
<path d="M22.619 23.504V21.7341" stroke="#FEDC5A" stroke-width="1.32738" stroke-linecap="round" stroke-linejoin="round"/>
<path d="M22.619 13.7698V16.1502" stroke="#292D32" stroke-width="1.32738" stroke-linecap="round" stroke-linejoin="round"/>
<path fill-rule="evenodd" clip-rule="evenodd" d="M22.8973 45.7946C35.5432 45.7946 45.7946 35.5432 45.7946 22.8973C45.7946 10.2515 35.5432 0 22.8973 0C10.2515 0 0 10.2515 0 22.8973C0 35.5432 10.2515 45.7946 22.8973 45.7946Z" fill="#FEDC5A" fill-opacity="0.1"/>
</svg>
