<svg width="46" height="46" viewBox="0 0 46 46" fill="none" xmlns="http://www.w3.org/2000/svg">
<path d="M31.4682 25.2737V19.9642C31.4682 15.5396 29.6984 13.7698 25.2738 13.7698H19.9643C15.5397 13.7698 13.7698 15.5396 13.7698 19.9642V25.2737C13.7698 29.6983 15.5397 31.4682 19.9643 31.4682H25.2738C29.6984 31.4682 31.4682 29.6983 31.4682 25.2737Z" stroke="#F04037" stroke-width="1.32738" stroke-linecap="round" stroke-linejoin="round"/>
<path d="M14.23 18.2917H31.0081" stroke="#F04037" stroke-width="1.32738" stroke-linecap="round" stroke-linejoin="round"/>
<path d="M19.5396 13.8672V18.1679" stroke="#F04037" stroke-width="1.32738" stroke-linecap="round" stroke-linejoin="round"/>
<path d="M25.6985 13.8672V17.7697" stroke="#F04037" stroke-width="1.32738" stroke-linecap="round" stroke-linejoin="round"/>
<path d="M20.628 24.7872V23.7253C20.628 22.3625 21.5926 21.805 22.7695 22.4864L23.6898 23.0173L24.6101 23.5483C25.7871 24.2297 25.7871 25.3447 24.6101 26.0261L23.6898 26.557L22.7695 27.088C21.5926 27.7693 20.628 27.2118 20.628 25.8491V24.7872V24.7872Z" stroke="#F04037" stroke-width="1.32738" stroke-miterlimit="10" stroke-linecap="round" stroke-linejoin="round"/>
<path fill-rule="evenodd" clip-rule="evenodd" d="M22.8973 45.7946C35.5432 45.7946 45.7946 35.5432 45.7946 22.8973C45.7946 10.2515 35.5432 0 22.8973 0C10.2515 0 0 10.2515 0 22.8973C0 35.5432 10.2515 45.7946 22.8973 45.7946Z" fill="#F04037" fill-opacity="0.1"/>
</svg>
