<svg width="46" height="46" viewBox="0 0 46 46" fill="none" xmlns="http://www.w3.org/2000/svg">
<path d="M19.9643 23.5039C19.3803 23.7959 18.8936 24.2295 18.5308 24.7693C18.3272 25.0791 18.3272 25.4684 18.5308 25.7782C18.8936 26.318 19.3803 26.7516 19.9643 27.0436" stroke="#FEDC5A" stroke-width="1.32738" stroke-linecap="round" stroke-linejoin="round"/>
<path d="M25.4596 23.5039C26.0436 23.7959 26.5303 24.2295 26.8932 24.7693C27.0967 25.0791 27.0967 25.4684 26.8932 25.7782C26.5303 26.318 26.0436 26.7516 25.4596 27.0436" stroke="#FEDC5A" stroke-width="1.32738" stroke-linecap="round" stroke-linejoin="round"/>
<path d="M19.9643 31.4682H25.2738C29.6984 31.4682 31.4682 29.6983 31.4682 25.2737V19.9642C31.4682 15.5396 29.6984 13.7698 25.2738 13.7698H19.9643C15.5397 13.7698 13.7698 15.5396 13.7698 19.9642V25.2737C13.7698 29.6983 15.5397 31.4682 19.9643 31.4682Z" stroke="#FEDC5A" stroke-width="1.32738" stroke-linecap="round" stroke-linejoin="round"/>
<path d="M13.9734 19.0882L30.9816 19.0793" stroke="#FEDC5A" stroke-width="1.32738" stroke-linecap="round" stroke-linejoin="round"/>
<path fill-rule="evenodd" clip-rule="evenodd" d="M22.8973 45.7946C35.5432 45.7946 45.7946 35.5432 45.7946 22.8973C45.7946 10.2515 35.5432 0 22.8973 0C10.2515 0 0 10.2515 0 22.8973C0 35.5432 10.2515 45.7946 22.8973 45.7946Z" fill="#FEDC5A" fill-opacity="0.1"/>
</svg>
