<svg width="46" height="46" viewBox="0 0 46 46" fill="none" xmlns="http://www.w3.org/2000/svg">
<path d="M17.9821 31.4682H27.256C29.6984 31.4682 30.6718 29.9727 30.7869 28.1497L31.247 20.8403C31.3709 18.9289 29.8488 17.3095 27.9286 17.3095C27.3888 17.3095 26.8932 16.9997 26.6454 16.5219L26.0083 15.2387C25.6012 14.4335 24.5393 13.7698 23.6367 13.7698H21.6102C20.6988 13.7698 19.6369 14.4335 19.2298 15.2387L18.5927 16.5219C18.3449 16.9997 17.8493 17.3095 17.3095 17.3095C15.3892 17.3095 13.8672 18.9289 13.9911 20.8403L14.4512 28.1497C14.5574 29.9727 15.5397 31.4682 17.9821 31.4682Z" stroke="#5454D4" stroke-width="1.32738" stroke-linecap="round" stroke-linejoin="round"/>
<path d="M21.2917 19.0793H23.9464" stroke="#5454D4" stroke-width="1.32738" stroke-linecap="round" stroke-linejoin="round"/>
<path d="M22.619 27.9285C24.203 27.9285 25.495 26.6365 25.495 25.0525C25.495 23.4685 24.203 22.1765 22.619 22.1765C21.035 22.1765 19.743 23.4685 19.743 25.0525C19.743 26.6365 21.035 27.9285 22.619 27.9285Z" stroke="#5454D4" stroke-width="1.32738" stroke-linecap="round" stroke-linejoin="round"/>
<path fill-rule="evenodd" clip-rule="evenodd" d="M22.8973 45.7946C35.5432 45.7946 45.7946 35.5432 45.7946 22.8973C45.7946 10.2515 35.5432 0 22.8973 0C10.2515 0 0 10.2515 0 22.8973C0 35.5432 10.2515 45.7946 22.8973 45.7946Z" fill="#5454D4" fill-opacity="0.1"/>
</svg>
