<svg width="46" height="46" viewBox="0 0 46 46" fill="none" xmlns="http://www.w3.org/2000/svg">
<path d="M23.5128 14.5839L28.7339 16.9024C30.2382 17.5661 30.2382 18.6634 28.7339 19.327L23.5128 21.6455C22.9199 21.911 21.9465 21.911 21.3536 21.6455L16.1326 19.327C14.6282 18.6634 14.6282 17.5661 16.1326 16.9024L21.3536 14.5839C21.9465 14.3184 22.9199 14.3184 23.5128 14.5839Z" stroke="#F04037" stroke-width="1.32738" stroke-linecap="round" stroke-linejoin="round"/>
<path d="M14.6548 21.7341C14.6548 22.4775 15.2123 23.3358 15.8937 23.6367L21.9023 26.3092C22.3624 26.5127 22.8845 26.5127 23.3359 26.3092L29.3445 23.6367C30.0259 23.3358 30.5834 22.4775 30.5834 21.7341" stroke="#F04037" stroke-width="1.32738" stroke-linecap="round" stroke-linejoin="round"/>
<path d="M14.6548 26.1587C14.6548 26.9817 15.1415 27.725 15.8937 28.0613L21.9023 30.7337C22.3624 30.9373 22.8845 30.9373 23.3359 30.7337L29.3445 28.0613C30.0966 27.725 30.5834 26.9817 30.5834 26.1587" stroke="#F04037" stroke-width="1.32738" stroke-linecap="round" stroke-linejoin="round"/>
<path fill-rule="evenodd" clip-rule="evenodd" d="M22.8973 45.7946C35.5432 45.7946 45.7946 35.5432 45.7946 22.8973C45.7946 10.2515 35.5432 0 22.8973 0C10.2515 0 0 10.2515 0 22.8973C0 35.5432 10.2515 45.7946 22.8973 45.7946Z" fill="#F04037" fill-opacity="0.1"/>
</svg>
